<svg width="148" height="24" viewBox="0 0 148 24" fill="none" xmlns="http://www.w3.org/2000/svg">
<rect y="0.5" width="27" height="23" rx="2" fill="#009087"/>
<path d="M13 12L5.29501 4.5L4 5.76056L10.41 12L4 18.2394L5.29501 19.5L13 12Z" fill="white"/>
<rect x="15" y="11" width="8" height="2" fill="white"/>
<path d="M38.6875 7.12305L41.5293 14.7891L44.3516 7.12305H48.0918V18.5H45.25V16.1953L45.543 10.2188L42.4668 18.5H40.582L37.5156 10.248L37.8086 16.1953V18.5H34.9668V7.12305H38.6875ZM54.4492 11.957L56.7832 7.12305H59.8496L55.8359 14.5352V18.5H53.0039V14.418L49.0684 7.12305H52.1152L54.4492 11.957Z" fill="#009087"/>
<path d="M72.8477 16.332H68.4434L67.6426 18.5H64.8105L69.3125 7.12305H71.9688L76.5098 18.5H73.6582L72.8477 16.332ZM69.2051 14.2617H72.0664L70.6309 10.4141L69.2051 14.2617ZM80.2988 14.7598V18.5H77.4668V7.12305H82.3203C83.2448 7.12305 84.0651 7.28906 84.7812 7.62109C85.4974 7.94661 86.0475 8.41211 86.4316 9.01758C86.8223 9.62305 87.0176 10.3066 87.0176 11.0684C87.0176 12.1947 86.5911 13.0931 85.7383 13.7637C84.8854 14.4277 83.7298 14.7598 82.2715 14.7598H80.2988ZM80.2988 12.4844H82.3203C82.9193 12.4844 83.3815 12.3607 83.707 12.1133C84.0391 11.8659 84.2051 11.5241 84.2051 11.0879C84.2051 10.5866 84.0391 10.1829 83.707 9.87695C83.3815 9.57096 82.929 9.41471 82.3496 9.4082H80.2988V12.4844ZM91.6562 18.5H88.8242V7.12305H91.6562V18.5ZM103.619 14.6035C103.541 15.847 103.049 16.8333 102.145 17.5625C101.246 18.2917 100.061 18.6562 98.5898 18.6562C97.0078 18.6562 95.7611 18.1745 94.8496 17.2109C93.9447 16.2409 93.4792 14.9062 93.4531 13.207V12.5625C93.4531 10.8633 93.9121 9.50586 94.8301 8.49023C95.7546 7.47461 97.0013 6.9668 98.5703 6.9668C100.042 6.9668 101.22 7.33464 102.105 8.07031C102.991 8.80599 103.499 9.82161 103.629 11.1172H100.807C100.742 9.86719 99.9961 9.24219 98.5703 9.24219C97.0859 9.24219 96.321 10.2806 96.2754 12.3574V13.0801C96.2754 14.2454 96.4544 15.0885 96.8125 15.6094C97.1771 16.1302 97.7695 16.3906 98.5898 16.3906C99.2995 16.3906 99.8333 16.2474 100.191 15.9609C100.556 15.6745 100.755 15.222 100.787 14.6035H103.619ZM112.145 16.332H107.74L106.939 18.5H104.107L108.609 7.12305H111.266L115.807 18.5H112.955L112.145 16.332ZM108.502 14.2617H111.363L109.928 10.4141L108.502 14.2617ZM119.596 16.2344H124.781V18.5H116.764V7.12305H119.596V16.2344ZM128.912 16.2344H134.098V18.5H126.08V7.12305H128.912V16.2344ZM141.725 15.4434C141.725 15.0658 141.565 14.763 141.246 14.5352C140.927 14.3073 140.383 14.1022 139.615 13.9199C138.847 13.7376 138.199 13.5456 137.672 13.3438C137.151 13.1354 136.721 12.8913 136.383 12.6113C136.044 12.3314 135.794 12.0091 135.631 11.6445C135.468 11.2734 135.387 10.834 135.387 10.3262C135.387 9.34961 135.794 8.54557 136.607 7.91406C137.421 7.28255 138.469 6.9668 139.752 6.9668C141.152 6.9668 142.281 7.28581 143.141 7.92383C144.007 8.55534 144.439 9.42122 144.439 10.5215H141.617C141.617 10.1048 141.448 9.75651 141.109 9.47656C140.777 9.19661 140.328 9.05664 139.762 9.05664C139.26 9.05664 138.854 9.16732 138.541 9.38867C138.229 9.61003 138.072 9.88672 138.072 10.2188C138.072 10.5508 138.235 10.821 138.561 11.0293C138.886 11.2311 139.426 11.4264 140.182 11.6152C141.699 11.9473 142.783 12.4062 143.434 12.9922C144.091 13.5781 144.42 14.3691 144.42 15.3652C144.42 16.3809 144.02 17.1849 143.219 17.7773C142.418 18.3633 141.324 18.6562 139.938 18.6562C138.993 18.6562 138.141 18.5033 137.379 18.1973C136.617 17.8913 136.028 17.4551 135.611 16.8887C135.201 16.3223 134.996 15.6517 134.996 14.877H137.828C137.828 15.4824 138.014 15.9186 138.385 16.1855C138.762 16.4525 139.326 16.5859 140.074 16.5859C140.582 16.5859 140.982 16.4818 141.275 16.2734C141.575 16.0651 141.725 15.7884 141.725 15.4434Z" fill="#07070A"/>
</svg>
