<svg width="124" height="22" viewBox="0 0 124 22" fill="none" xmlns="http://www.w3.org/2000/svg">
<path d="M31.615 17C31.5017 17 31.3997 16.9603 31.309 16.881C31.2297 16.8017 31.19 16.6997 31.19 16.575V5.525C31.19 5.40033 31.2297 5.29833 31.309 5.219C31.3997 5.13967 31.5017 5.1 31.615 5.1H33.451C33.6323 5.1 33.7683 5.151 33.859 5.253C33.961 5.34367 34.0233 5.41733 34.046 5.474L37.038 10.846L40.03 5.474C40.064 5.41733 40.1207 5.34367 40.2 5.253C40.2907 5.151 40.4323 5.1 40.625 5.1H42.444C42.5687 5.1 42.6707 5.13967 42.75 5.219C42.8407 5.29833 42.886 5.40033 42.886 5.525V16.575C42.886 16.6997 42.8407 16.8017 42.75 16.881C42.6707 16.9603 42.5687 17 42.444 17H40.421C40.2963 17 40.1887 16.9603 40.098 16.881C40.0187 16.8017 39.979 16.6997 39.979 16.575V10.2L38.058 13.753C38.0127 13.855 37.9447 13.9457 37.854 14.025C37.7633 14.1043 37.6387 14.144 37.48 14.144H36.596C36.4373 14.144 36.3127 14.1043 36.222 14.025C36.1313 13.9457 36.0577 13.855 36.001 13.753L34.08 10.2V16.575C34.08 16.6997 34.0403 16.8017 33.961 16.881C33.8817 16.9603 33.7797 17 33.655 17H31.615ZM46.7135 20.23C46.6115 20.23 46.5265 20.196 46.4585 20.128C46.3905 20.06 46.3565 19.975 46.3565 19.873C46.3565 19.8503 46.3565 19.8163 46.3565 19.771C46.3679 19.737 46.3849 19.6973 46.4075 19.652L47.7335 16.456L44.4695 8.738C44.4355 8.65867 44.4185 8.59067 44.4185 8.534C44.4412 8.432 44.4865 8.347 44.5545 8.279C44.6225 8.19967 44.7075 8.16 44.8095 8.16H46.7475C46.8949 8.16 47.0025 8.19967 47.0705 8.279C47.1499 8.347 47.2009 8.42633 47.2235 8.517L49.1785 13.464L51.1675 8.517C51.2129 8.42633 51.2695 8.347 51.3375 8.279C51.4169 8.19967 51.5302 8.16 51.6775 8.16H53.5815C53.6835 8.16 53.7685 8.19967 53.8365 8.279C53.9159 8.347 53.9555 8.42633 53.9555 8.517C53.9555 8.57367 53.9385 8.64733 53.9045 8.738L49.0935 19.873C49.0595 19.9637 49.0029 20.043 48.9235 20.111C48.8442 20.1903 48.7309 20.23 48.5835 20.23H46.7135ZM89.443 17.17C88.3664 17.17 87.4427 16.9943 86.672 16.643C85.9127 16.2917 85.3177 15.776 84.887 15.096C84.4677 14.416 84.2354 13.5717 84.19 12.563C84.1787 12.0983 84.173 11.5997 84.173 11.067C84.173 10.5343 84.1787 10.0243 84.19 9.537C84.2354 8.551 84.4734 7.718 84.904 7.038C85.3347 6.34667 85.9354 5.82533 86.706 5.474C87.4767 5.11133 88.389 4.93 89.443 4.93C90.191 4.93 90.8824 5.02633 91.517 5.219C92.1517 5.40033 92.707 5.67233 93.183 6.035C93.659 6.38633 94.0274 6.817 94.288 7.327C94.56 7.82567 94.7017 8.39233 94.713 9.027C94.7244 9.129 94.6904 9.214 94.611 9.282C94.543 9.35 94.458 9.384 94.356 9.384H92.061C91.9137 9.384 91.8004 9.35567 91.721 9.299C91.6417 9.231 91.5737 9.112 91.517 8.942C91.3584 8.34133 91.0977 7.93333 90.735 7.718C90.3837 7.49133 89.9474 7.378 89.426 7.378C88.8027 7.378 88.3097 7.55367 87.947 7.905C87.5844 8.245 87.386 8.81733 87.352 9.622C87.318 10.5513 87.318 11.5033 87.352 12.478C87.386 13.2827 87.5844 13.8607 87.947 14.212C88.3097 14.552 88.8027 14.722 89.426 14.722C89.9474 14.722 90.3894 14.6087 90.752 14.382C91.1147 14.1553 91.3697 13.7473 91.517 13.158C91.5624 12.988 91.6247 12.8747 91.704 12.818C91.7947 12.75 91.9137 12.716 92.061 12.716H94.356C94.458 12.716 94.543 12.75 94.611 12.818C94.6904 12.886 94.7244 12.971 94.713 13.073C94.7017 13.7077 94.56 14.28 94.288 14.79C94.0274 15.2887 93.659 15.7193 93.183 16.082C92.707 16.4333 92.1517 16.7053 91.517 16.898C90.8824 17.0793 90.191 17.17 89.443 17.17ZM98.9655 17.17C98.3535 17.17 97.8039 17.0567 97.3165 16.83C96.8405 16.592 96.4609 16.2747 96.1775 15.878C95.8942 15.4813 95.7525 15.0337 95.7525 14.535C95.7525 13.7303 96.0812 13.0957 96.7385 12.631C97.3959 12.155 98.2685 11.832 99.3565 11.662L101.482 11.339V11.101C101.482 10.693 101.397 10.3813 101.227 10.166C101.057 9.95067 100.745 9.843 100.292 9.843C99.9742 9.843 99.7135 9.90533 99.5095 10.03C99.3169 10.1547 99.1639 10.3247 99.0505 10.54C98.9485 10.6873 98.8069 10.761 98.6255 10.761H96.7215C96.5969 10.761 96.5005 10.727 96.4325 10.659C96.3645 10.5797 96.3362 10.489 96.3475 10.387C96.3475 10.183 96.4212 9.95067 96.5685 9.69C96.7272 9.418 96.9652 9.15167 97.2825 8.891C97.5999 8.63033 98.0079 8.415 98.5065 8.245C99.0052 8.075 99.6059 7.99 100.309 7.99C101.045 7.99 101.674 8.075 102.196 8.245C102.717 8.415 103.136 8.653 103.454 8.959C103.782 9.265 104.026 9.62767 104.185 10.047C104.343 10.455 104.423 10.9083 104.423 11.407V16.575C104.423 16.6997 104.377 16.8017 104.287 16.881C104.207 16.9603 104.111 17 103.998 17H102.026C101.901 17 101.799 16.9603 101.72 16.881C101.64 16.8017 101.601 16.6997 101.601 16.575V15.98C101.453 16.1953 101.255 16.3937 101.006 16.575C100.756 16.7563 100.462 16.898 100.122 17C99.7929 17.1133 99.4075 17.17 98.9655 17.17ZM99.7645 15.232C100.093 15.232 100.388 15.164 100.649 15.028C100.921 14.8807 101.13 14.6597 101.278 14.365C101.436 14.059 101.516 13.6793 101.516 13.226V12.988L100.071 13.243C99.5379 13.3337 99.1469 13.4753 98.8975 13.668C98.6595 13.8493 98.5405 14.0647 98.5405 14.314C98.5405 14.5067 98.5972 14.671 98.7105 14.807C98.8239 14.943 98.9712 15.0507 99.1525 15.13C99.3339 15.198 99.5379 15.232 99.7645 15.232ZM106.766 17C106.641 17 106.539 16.9603 106.46 16.881C106.381 16.8017 106.341 16.6997 106.341 16.575V5.355C106.341 5.23033 106.381 5.12833 106.46 5.049C106.539 4.96967 106.641 4.93 106.766 4.93H108.772C108.897 4.93 108.999 4.96967 109.078 5.049C109.157 5.12833 109.197 5.23033 109.197 5.355V16.575C109.197 16.6997 109.157 16.8017 109.078 16.881C108.999 16.9603 108.897 17 108.772 17H106.766ZM111.63 17C111.505 17 111.403 16.9603 111.324 16.881C111.245 16.8017 111.205 16.6997 111.205 16.575V5.355C111.205 5.23033 111.245 5.12833 111.324 5.049C111.403 4.96967 111.505 4.93 111.63 4.93H113.636C113.761 4.93 113.863 4.96967 113.942 5.049C114.021 5.12833 114.061 5.23033 114.061 5.355V16.575C114.061 16.6997 114.021 16.8017 113.942 16.881C113.863 16.9603 113.761 17 113.636 17H111.63ZM119.707 17.17C118.971 17.17 118.342 17.0907 117.82 16.932C117.31 16.762 116.891 16.558 116.562 16.32C116.245 16.082 116.007 15.8383 115.848 15.589C115.69 15.3283 115.605 15.1073 115.593 14.926C115.582 14.8013 115.622 14.6993 115.712 14.62C115.803 14.5293 115.899 14.484 116.001 14.484H117.939C117.973 14.484 118.002 14.4897 118.024 14.501C118.047 14.5123 118.081 14.535 118.126 14.569C118.274 14.6483 118.421 14.7503 118.568 14.875C118.716 14.9883 118.886 15.0903 119.078 15.181C119.271 15.2717 119.503 15.317 119.775 15.317C120.093 15.317 120.359 15.2547 120.574 15.13C120.79 15.0053 120.897 14.8183 120.897 14.569C120.897 14.3877 120.846 14.2403 120.744 14.127C120.642 14.0023 120.433 13.8833 120.115 13.77C119.809 13.6567 119.345 13.5433 118.721 13.43C118.132 13.294 117.616 13.1183 117.174 12.903C116.732 12.6763 116.392 12.3873 116.154 12.036C115.916 11.6733 115.797 11.237 115.797 10.727C115.797 10.2737 115.945 9.83733 116.239 9.418C116.534 8.99867 116.965 8.65867 117.531 8.398C118.098 8.126 118.795 7.99 119.622 7.99C120.28 7.99 120.846 8.06933 121.322 8.228C121.81 8.37533 122.218 8.568 122.546 8.806C122.886 9.044 123.141 9.28767 123.311 9.537C123.481 9.78633 123.572 10.013 123.583 10.217C123.595 10.3303 123.561 10.4323 123.481 10.523C123.402 10.6023 123.311 10.642 123.209 10.642H121.441C121.396 10.642 121.351 10.6363 121.305 10.625C121.26 10.6023 121.22 10.5797 121.186 10.557C121.05 10.489 120.914 10.3983 120.778 10.285C120.642 10.1717 120.484 10.0697 120.302 9.979C120.121 9.88833 119.894 9.843 119.622 9.843C119.316 9.843 119.078 9.911 118.908 10.047C118.738 10.183 118.653 10.3587 118.653 10.574C118.653 10.7213 118.699 10.8573 118.789 10.982C118.891 11.1067 119.09 11.22 119.384 11.322C119.69 11.424 120.161 11.5373 120.795 11.662C121.577 11.7867 122.201 11.9907 122.665 12.274C123.13 12.546 123.459 12.869 123.651 13.243C123.844 13.6057 123.94 13.991 123.94 14.399C123.94 14.943 123.776 15.4247 123.447 15.844C123.13 16.2633 122.654 16.592 122.019 16.83C121.385 17.0567 120.614 17.17 119.707 17.17Z" fill="black"/>
<path d="M54.7151 17C54.6244 17 54.5394 16.966 54.4601 16.898C54.3921 16.8187 54.3581 16.7337 54.3581 16.643C54.3581 16.5863 54.3637 16.5353 54.3751 16.49L58.3701 5.576C58.4041 5.45133 58.4721 5.34367 58.5741 5.253C58.6874 5.151 58.8404 5.1 59.0331 5.1H61.5491C61.7417 5.1 61.8891 5.151 61.9911 5.253C62.1044 5.34367 62.1781 5.45133 62.2121 5.576L66.1901 16.49C66.2127 16.5353 66.2241 16.5863 66.2241 16.643C66.2241 16.7337 66.1844 16.8187 66.1051 16.898C66.0371 16.966 65.9521 17 65.8501 17H63.7591C63.5891 17 63.4587 16.9603 63.3681 16.881C63.2887 16.7903 63.2377 16.711 63.2151 16.643L62.5521 14.909H58.0131L57.3671 16.643C57.3444 16.711 57.2934 16.7903 57.2141 16.881C57.1347 16.9603 56.9987 17 56.8061 17H54.7151ZM58.7101 12.461H61.8721L60.2741 7.973L58.7101 12.461ZM67.989 17C67.8644 17 67.7624 16.9603 67.683 16.881C67.6037 16.8017 67.564 16.6997 67.564 16.575V5.525C67.564 5.40033 67.6037 5.29833 67.683 5.219C67.7624 5.13967 67.8644 5.1 67.989 5.1H72.749C73.6897 5.1 74.5057 5.24733 75.197 5.542C75.8997 5.82533 76.4437 6.256 76.829 6.834C77.2257 7.412 77.424 8.143 77.424 9.027C77.424 9.89967 77.2257 10.6193 76.829 11.186C76.4437 11.7527 75.8997 12.172 75.197 12.444C74.5057 12.716 73.6897 12.852 72.749 12.852H70.726V16.575C70.726 16.6997 70.6807 16.8017 70.59 16.881C70.5107 16.9603 70.4087 17 70.284 17H67.989ZM70.675 10.506H72.664C73.1514 10.506 73.5367 10.3813 73.82 10.132C74.1147 9.88267 74.262 9.503 74.262 8.993C74.262 8.56233 74.1374 8.19967 73.888 7.905C73.6387 7.61033 73.2307 7.463 72.664 7.463H70.675V10.506ZM79.4773 17C79.3526 17 79.2506 16.9603 79.1713 16.881C79.092 16.8017 79.0523 16.6997 79.0523 16.575V5.525C79.0523 5.40033 79.092 5.29833 79.1713 5.219C79.2506 5.13967 79.3526 5.1 79.4773 5.1H81.7553C81.88 5.1 81.982 5.13967 82.0613 5.219C82.1406 5.29833 82.1803 5.40033 82.1803 5.525V16.575C82.1803 16.6997 82.1406 16.8017 82.0613 16.881C81.982 16.9603 81.88 17 81.7553 17H79.4773Z" fill="#009087"/>
<rect width="22" height="22" rx="11" fill="#009087"/>
<path d="M7.44005 14.3333L4.52005 11.4133C4.46173 11.3614 4.41505 11.2977 4.38308 11.2265C4.35112 11.1552 4.33459 11.078 4.33459 11C4.33459 10.9219 4.35112 10.8447 4.38308 10.7734C4.41505 10.7022 4.46173 10.6385 4.52005 10.5866L7.44005 7.66663L8.33338 8.55996L5.89338 11L8.33338 13.44L7.44005 14.3333ZM14.5601 14.3333L17.4801 11.4133C17.5384 11.3614 17.5851 11.2977 17.617 11.2265C17.649 11.1552 17.6655 11.078 17.6655 11C17.6655 10.9219 17.649 10.8447 17.617 10.7734C17.5851 10.7022 17.5384 10.6385 17.4801 10.5866L14.5601 7.66663L13.6667 8.55996L16.1067 11L13.6667 13.44L14.5601 14.3333ZM10.0601 16.3333L13.2601 5.66663H11.9267L8.74005 16.3333H10.0601Z" fill="white"/>
</svg>
